<?xml version="1.0" standalone="no"?>
<!DOCTYPE svg PUBLIC "-//W3C//DTD SVG 1.1//EN"
  "http://www.w3.org/Graphics/SVG/1.1/DTD/svg11.dtd">
<svg width="3512" height="2000" version="1.1"
  xmlns="http://www.w3.org/2000/svg">
<line x1="3" y1="1000" x2="3509" y2="1000" style="stroke:black;"/><rect x="2311" y="1000" width="0" height="400" rx="0" ry="0" style="stroke-width:2;fill:red;stroke:black;"/><line x1="2025" y1="1450" x2="2311" y2="1400" style="stroke:black;"/><rect x="2325" y="1000" width="5" height="400" rx="0" ry="0" style="stroke-width:2;fill:red;stroke:black;"/><line x1="2025" y1="1450" x2="2328" y2="1400" style="stroke:black;"/><rect x="1736" y="1000" width="2" height="400" rx="0" ry="0" style="stroke-width:2;fill:red;stroke:black;"/><line x1="2025" y1="1450" x2="1737" y2="1400" style="stroke:black;"/><text x="2025" y="1450" style="fill:black;"><tspan x="2025" dy="0em">rps12</tspan></text><rect x="5" y="1000" width="26" height="400" rx="0" ry="0" style="stroke-width:2;fill:green;stroke:black;"/><text x="19" y="1450" style="fill:black;"><tspan x="19" dy="0em">psbA</tspan></text><rect x="45" y="1000" width="38" height="400" rx="0" ry="0" style="stroke-width:2;fill:yellow;stroke:black;"/><text x="64" y="1450" style="fill:black;"><tspan x="64" dy="0em">matK</tspan></text><rect x="116" y="1000" width="5" height="400" rx="0" ry="0" style="stroke-width:2;fill:green;stroke:black;"/><line x1="129" y1="1450" x2="118" y2="1400" style="stroke:black;"/><rect x="142" y="1000" width="0" height="400" rx="0" ry="0" style="stroke-width:2;fill:green;stroke:black;"/><line x1="129" y1="1450" x2="143" y2="1400" style="stroke:black;"/><text x="129" y="1450" style="fill:black;"><tspan x="129" dy="0em">rps16</tspan></text><rect x="183" y="600" width="4" height="400" rx="0" ry="0" style="stroke-width:2;fill:green;stroke:black;"/><text x="186" y="550" style="fill:black;"><tspan x="186" dy="0em">psbK</tspan></text><rect x="198" y="600" width="2" height="400" rx="0" ry="0" style="stroke-width:2;fill:orange;stroke:black;"/><text x="199" y="550" style="fill:black;"><tspan x="199" dy="0em">psbI</tspan></text><rect x="230" y="600" width="26" height="400" rx="0" ry="0" style="stroke-width:2;fill:yellow;stroke:black;"/><text x="244" y="550" style="fill:black;"><tspan x="244" dy="0em">psbD</tspan></text><rect x="256" y="600" width="35" height="400" rx="0" ry="0" style="stroke-width:2;fill:yellow;stroke:black;"/><text x="273" y="550" style="fill:black;"><tspan x="273" dy="0em">psbC</tspan></text><rect x="304" y="600" width="4" height="400" rx="0" ry="0" style="stroke-width:2;fill:yellow;stroke:black;"/><text x="306" y="550" style="fill:black;"><tspan x="306" dy="0em">psbZ</tspan></text><rect x="458" y="600" width="2" height="400" rx="0" ry="0" style="stroke-width:2;fill:orange;stroke:black;"/><text x="459" y="550" style="fill:black;"><tspan x="459" dy="0em">psbM</tspan></text><rect x="480" y="1000" width="2" height="400" rx="0" ry="0" style="stroke-width:2;fill:yellow;stroke:black;"/><text x="481" y="1450" style="fill:black;"><tspan x="481" dy="0em">petN</tspan></text><rect x="540" y="600" width="80" height="400" rx="0" ry="0" style="stroke-width:2;fill:yellow;stroke:black;"/><text x="580" y="550" style="fill:black;"><tspan x="580" dy="0em">rpoB</tspan></text><rect x="622" y="600" width="51" height="400" rx="0" ry="0" style="stroke-width:2;fill:orange;stroke:black;"/><text x="647" y="550" style="fill:black;"><tspan x="647" dy="0em">rpoC1</tspan></text><rect x="678" y="600" width="114" height="400" rx="0" ry="0" style="stroke-width:2;fill:red;stroke:black;"/><text x="735" y="550" style="fill:black;"><tspan x="735" dy="0em">rpoC2</tspan></text><rect x="800" y="600" width="17" height="400" rx="0" ry="0" style="stroke-width:2;fill:orange;stroke:black;"/><text x="809" y="550" style="fill:black;"><tspan x="809" dy="0em">rps2</tspan></text><rect x="824" y="600" width="18" height="400" rx="0" ry="0" style="stroke-width:2;fill:orange;stroke:black;"/><text x="833" y="550" style="fill:black;"><tspan x="833" dy="0em">atpI</tspan></text><rect x="863" y="600" width="6" height="400" rx="0" ry="0" style="stroke-width:2;fill:yellow;stroke:black;"/><text x="866" y="550" style="fill:black;"><tspan x="866" dy="0em">atpH</tspan></text><rect x="881" y="600" width="3" height="400" rx="0" ry="0" style="stroke-width:2;fill:orange;stroke:black;"/><line x1="882" y1="600" x2="898" y2="550" style="stroke:black;"/><rect x="905" y="600" width="10" height="400" rx="0" ry="0" style="stroke-width:2;fill:orange;stroke:black;"/><line x1="910" y1="600" x2="898" y2="550" style="stroke:black;"/><text x="898" y="550" style="fill:black;"><tspan x="898" dy="0em">atpF</tspan></text><rect x="918" y="600" width="38" height="400" rx="0" ry="0" style="stroke-width:2;fill:green;stroke:black;"/><text x="937" y="550" style="fill:black;"><tspan x="937" dy="0em">atpA</tspan></text><rect x="970" y="1000" width="7" height="400" rx="0" ry="0" style="stroke-width:2;fill:red;stroke:black;"/><text x="974" y="1450" style="fill:black;"><tspan x="974" dy="0em">rps14</tspan></text><rect x="981" y="1000" width="55" height="400" rx="0" ry="0" style="stroke-width:2;fill:yellow;stroke:black;"/><text x="1009" y="1450" style="fill:black;"><tspan x="1009" dy="0em">psaB</tspan></text><rect x="1037" y="1000" width="56" height="400" rx="0" ry="0" style="stroke-width:2;fill:red;stroke:black;"/><text x="1065" y="1450" style="fill:black;"><tspan x="1065" dy="0em">psaA</tspan></text><rect x="1109" y="1000" width="3" height="400" rx="0" ry="0" style="stroke-width:2;fill:orange;stroke:black;"/><line x1="1133" y1="1450" x2="1111" y2="1400" style="stroke:black;"/><rect x="1131" y="1000" width="5" height="400" rx="0" ry="0" style="stroke-width:2;fill:orange;stroke:black;"/><line x1="1133" y1="1450" x2="1134" y2="1400" style="stroke:black;"/><rect x="1155" y="1000" width="3" height="400" rx="0" ry="0" style="stroke-width:2;fill:orange;stroke:black;"/><line x1="1133" y1="1450" x2="1157" y2="1400" style="stroke:black;"/><text x="1133" y="1450" style="fill:black;"><tspan x="1133" dy="0em">ycf3</tspan></text><rect x="1182" y="1000" width="15" height="400" rx="0" ry="0" style="stroke-width:2;fill:green;stroke:black;"/><text x="1190" y="1450" style="fill:black;"><tspan x="1190" dy="0em">rps4</tspan></text><rect x="1267" y="1000" width="11" height="400" rx="0" ry="0" style="stroke-width:2;fill:orange;stroke:black;"/><text x="1273" y="1450" style="fill:black;"><tspan x="1273" dy="0em">ndhJ</tspan></text><rect x="1281" y="1000" width="17" height="400" rx="0" ry="0" style="stroke-width:2;fill:yellow;stroke:black;"/><text x="1290" y="1450" style="fill:black;"><tspan x="1290" dy="0em">ndhK</tspan></text><rect x="1300" y="1000" width="9" height="400" rx="0" ry="0" style="stroke-width:2;fill:green;stroke:black;"/><text x="1304" y="1450" style="fill:black;"><tspan x="1304" dy="0em">ndhC</tspan></text><rect x="1358" y="1000" width="10" height="400" rx="0" ry="0" style="stroke-width:2;fill:red;stroke:black;"/><text x="1364" y="1450" style="fill:black;"><tspan x="1364" dy="0em">atpE</tspan></text><rect x="1369" y="1000" width="37" height="400" rx="0" ry="0" style="stroke-width:2;fill:yellow;stroke:black;"/><text x="1387" y="1450" style="fill:black;"><tspan x="1387" dy="0em">atpB</tspan></text><rect x="1425" y="600" width="35" height="400" rx="0" ry="0" style="stroke-width:2;fill:yellow;stroke:black;"/><text x="1443" y="550" style="fill:black;"><tspan x="1443" dy="0em">rbcL</tspan></text><rect x="1483" y="600" width="2" height="400" rx="0" ry="0" style="stroke-width:2;fill:orange;stroke:black;"/><text x="1484" y="550" style="fill:black;"><tspan x="1484" dy="0em">psaI</tspan></text><rect x="1495" y="600" width="13" height="400" rx="0" ry="0" style="stroke-width:2;fill:orange;stroke:black;"/><text x="1502" y="550" style="fill:black;"><tspan x="1502" dy="0em">ycf4</tspan></text><rect x="1517" y="600" width="17" height="400" rx="0" ry="0" style="stroke-width:2;fill:orange;stroke:black;"/><text x="1526" y="550" style="fill:black;"><tspan x="1526" dy="0em">cemA</tspan></text><rect x="1540" y="600" width="24" height="400" rx="0" ry="0" style="stroke-width:2;fill:green;stroke:black;"/><text x="1552" y="550" style="fill:black;"><tspan x="1552" dy="0em">petA</tspan></text><rect x="1587" y="1000" width="3" height="400" rx="0" ry="0" style="stroke-width:2;fill:green;stroke:black;"/><text x="1588" y="1450" style="fill:black;"><tspan x="1588" dy="0em">psbJ</tspan></text><rect x="1593" y="1000" width="2" height="400" rx="0" ry="0" style="stroke-width:2;fill:yellow;stroke:black;"/><text x="1595" y="1450" style="fill:black;"><tspan x="1595" dy="0em">psbL</tspan></text><rect x="1597" y="1000" width="2" height="400" rx="0" ry="0" style="stroke-width:2;fill:orange;stroke:black;"/><text x="1598" y="1450" style="fill:black;"><tspan x="1598" dy="0em">psbF</tspan></text><rect x="1600" y="1000" width="6" height="400" rx="0" ry="0" style="stroke-width:2;fill:red;stroke:black;"/><text x="1603" y="1450" style="fill:black;"><tspan x="1603" dy="0em">psbE</tspan></text><rect x="1637" y="600" width="2" height="400" rx="0" ry="0" style="stroke-width:2;fill:red;stroke:black;"/><text x="1638" y="550" style="fill:black;"><tspan x="1638" dy="0em">petL</tspan></text><rect x="1644" y="600" width="2" height="400" rx="0" ry="0" style="stroke-width:2;fill:green;stroke:black;"/><text x="1645" y="550" style="fill:black;"><tspan x="1645" dy="0em">petG</tspan></text><rect x="1666" y="600" width="3" height="400" rx="0" ry="0" style="stroke-width:2;fill:yellow;stroke:black;"/><text x="1668" y="550" style="fill:black;"><tspan x="1668" dy="0em">psaJ</tspan></text><rect x="1678" y="600" width="5" height="400" rx="0" ry="0" style="stroke-width:2;fill:green;stroke:black;"/><text x="1681" y="550" style="fill:black;"><tspan x="1681" dy="0em">rpl33</tspan></text><rect x="1692" y="600" width="12" height="400" rx="0" ry="0" style="stroke-width:2;fill:red;stroke:black;"/><text x="1698" y="550" style="fill:black;"><tspan x="1698" dy="0em">rps18</tspan></text><rect x="1710" y="1000" width="8" height="400" rx="0" ry="0" style="stroke-width:2;fill:red;stroke:black;"/><text x="1714" y="1450" style="fill:black;"><tspan x="1714" dy="0em">rpl20</tspan></text><rect x="1742" y="1000" width="16" height="400" rx="0" ry="0" style="stroke-width:2;fill:orange;stroke:black;"/><text x="1750" y="1450" style="fill:black;"><tspan x="1750" dy="0em">clpP</tspan></text><rect x="1771" y="600" width="38" height="400" rx="0" ry="0" style="stroke-width:2;fill:yellow;stroke:black;"/><text x="1790" y="550" style="fill:black;"><tspan x="1790" dy="0em">psbB</tspan></text><rect x="1813" y="600" width="2" height="400" rx="0" ry="0" style="stroke-width:2;fill:yellow;stroke:black;"/><text x="1815" y="550" style="fill:black;"><tspan x="1815" dy="0em">psbT</tspan></text><rect x="1817" y="1000" width="3" height="400" rx="0" ry="0" style="stroke-width:2;fill:orange;stroke:black;"/><text x="1819" y="1450" style="fill:black;"><tspan x="1819" dy="0em">psbN</tspan></text><rect x="1823" y="600" width="5" height="400" rx="0" ry="0" style="stroke-width:2;fill:orange;stroke:black;"/><text x="1826" y="550" style="fill:black;"><tspan x="1826" dy="0em">psbH</tspan></text><rect x="1832" y="600" width="0" height="400" rx="0" ry="0" style="stroke-width:2;fill:red;stroke:black;"/><line x1="1832" y1="600" x2="1849" y2="550" style="stroke:black;"/><rect x="1849" y="600" width="17" height="400" rx="0" ry="0" style="stroke-width:2;fill:red;stroke:black;"/><line x1="1858" y1="600" x2="1849" y2="550" style="stroke:black;"/><text x="1849" y="550" style="fill:black;"><tspan x="1849" dy="0em">petB</tspan></text><rect x="1871" y="600" width="0" height="400" rx="0" ry="0" style="stroke-width:2;fill:yellow;stroke:black;"/><line x1="1871" y1="600" x2="1887" y2="550" style="stroke:black;"/><rect x="1890" y="600" width="11" height="400" rx="0" ry="0" style="stroke-width:2;fill:yellow;stroke:black;"/><line x1="1896" y1="600" x2="1887" y2="550" style="stroke:black;"/><text x="1887" y="550" style="fill:black;"><tspan x="1887" dy="0em">petD</tspan></text><rect x="1908" y="1000" width="25" height="400" rx="0" ry="0" style="stroke-width:2;fill:yellow;stroke:black;"/><text x="1920" y="1450" style="fill:black;"><tspan x="1920" dy="0em">rpoA</tspan></text><rect x="1935" y="1000" width="10" height="400" rx="0" ry="0" style="stroke-width:2;fill:green;stroke:black;"/><text x="1940" y="1450" style="fill:black;"><tspan x="1940" dy="0em">rps11</tspan></text><rect x="1950" y="1000" width="2" height="400" rx="0" ry="0" style="stroke-width:2;fill:yellow;stroke:black;"/><text x="1951" y="1450" style="fill:black;"><tspan x="1951" dy="0em">rpl36</tspan></text><rect x="1955" y="1000" width="8" height="400" rx="0" ry="0" style="stroke-width:2;fill:red;stroke:black;"/><text x="1959" y="1450" style="fill:black;"><tspan x="1959" dy="0em">infA</tspan></text><rect x="1965" y="1000" width="10" height="400" rx="0" ry="0" style="stroke-width:2;fill:red;stroke:black;"/><text x="1971" y="1450" style="fill:black;"><tspan x="1971" dy="0em">rps8</tspan></text><rect x="1979" y="1000" width="9" height="400" rx="0" ry="0" style="stroke-width:2;fill:orange;stroke:black;"/><text x="1984" y="1450" style="fill:black;"><tspan x="1984" dy="0em">rpl14</tspan></text><rect x="1991" y="1000" width="10" height="400" rx="0" ry="0" style="stroke-width:2;fill:green;stroke:black;"/><line x1="2009" y1="1450" x2="1996" y2="1400" style="stroke:black;"/><rect x="2027" y="1000" width="0" height="400" rx="0" ry="0" style="stroke-width:2;fill:green;stroke:black;"/><line x1="2009" y1="1450" x2="2027" y2="1400" style="stroke:black;"/><text x="2009" y="1450" style="fill:black;"><tspan x="2009" dy="0em">rpl16</tspan></text><rect x="2031" y="1000" width="16" height="400" rx="0" ry="0" style="stroke-width:2;fill:yellow;stroke:black;"/><text x="2040" y="1450" style="fill:black;"><tspan x="2040" dy="0em">rps3</tspan></text><rect x="2049" y="1000" width="11" height="400" rx="0" ry="0" style="stroke-width:2;fill:yellow;stroke:black;"/><text x="2055" y="1450" style="fill:black;"><tspan x="2055" dy="0em">rpl22</tspan></text><rect x="2063" y="1000" width="7" height="400" rx="0" ry="0" style="stroke-width:2;fill:red;stroke:black;"/><text x="2066" y="1450" style="fill:black;"><tspan x="2066" dy="0em">rps19</tspan></text><rect x="2077" y="1000" width="10" height="400" rx="0" ry="0" style="stroke-width:2;fill:yellow;stroke:black;"/><line x1="2095" y1="1450" x2="2082" y2="1400" style="stroke:black;"/><rect x="2104" y="1000" width="9" height="400" rx="0" ry="0" style="stroke-width:2;fill:yellow;stroke:black;"/><line x1="2095" y1="1450" x2="2109" y2="1400" style="stroke:black;"/><text x="2095" y="1450" style="fill:black;"><tspan x="2095" dy="0em">rpl2</tspan></text><rect x="2114" y="1000" width="7" height="400" rx="0" ry="0" style="stroke-width:2;fill:orange;stroke:black;"/><text x="2118" y="1450" style="fill:black;"><tspan x="2118" dy="0em">rpl23</tspan></text><rect x="2234" y="1000" width="18" height="400" rx="0" ry="0" style="stroke-width:2;fill:yellow;stroke:black;"/><line x1="2262" y1="1450" x2="2244" y2="1400" style="stroke:black;"/><rect x="2271" y="1000" width="19" height="400" rx="0" ry="0" style="stroke-width:2;fill:yellow;stroke:black;"/><line x1="2262" y1="1450" x2="2280" y2="1400" style="stroke:black;"/><text x="2262" y="1450" style="fill:black;"><tspan x="2262" dy="0em">ndhB</tspan></text><rect x="2298" y="1000" width="11" height="400" rx="0" ry="0" style="stroke-width:2;fill:orange;stroke:black;"/><text x="2303" y="1450" style="fill:black;"><tspan x="2303" dy="0em">rps7</tspan></text><rect x="2621" y="600" width="5" height="400" rx="0" ry="0" style="stroke-width:2;fill:yellow;stroke:black;"/><text x="2624" y="550" style="fill:black;"><tspan x="2624" dy="0em">rps15</tspan></text><rect x="2630" y="1000" width="55" height="400" rx="0" ry="0" style="stroke-width:2;fill:green;stroke:black;"/><text x="2658" y="1450" style="fill:black;"><tspan x="2658" dy="0em">ndhF</tspan></text><rect x="2706" y="600" width="4" height="400" rx="0" ry="0" style="stroke-width:2;fill:red;stroke:black;"/><text x="2709" y="550" style="fill:black;"><tspan x="2709" dy="0em">rpl32</tspan></text><rect x="2728" y="600" width="24" height="400" rx="0" ry="0" style="stroke-width:2;fill:green;stroke:black;"/><text x="2740" y="550" style="fill:black;"><tspan x="2740" dy="0em">ccsA</tspan></text><rect x="2757" y="1000" width="37" height="400" rx="0" ry="0" style="stroke-width:2;fill:yellow;stroke:black;"/><text x="2775" y="1450" style="fill:black;"><tspan x="2775" dy="0em">ndhD</tspan></text><rect x="2797" y="1000" width="6" height="400" rx="0" ry="0" style="stroke-width:2;fill:red;stroke:black;"/><text x="2800" y="1450" style="fill:black;"><tspan x="2800" dy="0em">psaC</tspan></text><rect x="2815" y="1000" width="7" height="400" rx="0" ry="0" style="stroke-width:2;fill:orange;stroke:black;"/><text x="2819" y="1450" style="fill:black;"><tspan x="2819" dy="0em">ndhE</tspan></text><rect x="2828" y="1000" width="13" height="400" rx="0" ry="0" style="stroke-width:2;fill:orange;stroke:black;"/><text x="2835" y="1450" style="fill:black;"><tspan x="2835" dy="0em">ndhG</tspan></text><rect x="2846" y="1000" width="13" height="400" rx="0" ry="0" style="stroke-width:2;fill:green;stroke:black;"/><text x="2853" y="1450" style="fill:black;"><tspan x="2853" dy="0em">ndhI</tspan></text><rect x="2862" y="1000" width="13" height="400" rx="0" ry="0" style="stroke-width:2;fill:orange;stroke:black;"/><line x1="2888" y1="1450" x2="2869" y2="1400" style="stroke:black;"/><rect x="2901" y="1000" width="13" height="400" rx="0" ry="0" style="stroke-width:2;fill:orange;stroke:black;"/><line x1="2888" y1="1450" x2="2908" y2="1400" style="stroke:black;"/><text x="2888" y="1450" style="fill:black;"><tspan x="2888" dy="0em">ndhA</tspan></text><rect x="2915" y="1000" width="29" height="400" rx="0" ry="0" style="stroke-width:2;fill:orange;stroke:black;"/><text x="2929" y="1450" style="fill:black;"><tspan x="2929" dy="0em">ndhH</tspan></text><rect x="2948" y="1000" width="5" height="400" rx="0" ry="0" style="stroke-width:2;fill:green;stroke:black;"/><text x="2951" y="1450" style="fill:black;"><tspan x="2951" dy="0em">rps15</tspan></text><rect x="3266" y="600" width="11" height="400" rx="0" ry="0" style="stroke-width:2;fill:red;stroke:black;"/><text x="3272" y="550" style="fill:black;"><tspan x="3272" dy="0em">rps7</tspan></text><rect x="3285" y="600" width="19" height="400" rx="0" ry="0" style="stroke-width:2;fill:orange;stroke:black;"/><line x1="3295" y1="600" x2="3313" y2="550" style="stroke:black;"/><rect x="3322" y="600" width="18" height="400" rx="0" ry="0" style="stroke-width:2;fill:orange;stroke:black;"/><line x1="3331" y1="600" x2="3313" y2="550" style="stroke:black;"/><text x="3313" y="550" style="fill:black;"><tspan x="3313" dy="0em">ndhB</tspan></text><rect x="3454" y="600" width="7" height="400" rx="0" ry="0" style="stroke-width:2;fill:red;stroke:black;"/><text x="3457" y="550" style="fill:black;"><tspan x="3457" dy="0em">rpl23</tspan></text><rect x="3461" y="600" width="9" height="400" rx="0" ry="0" style="stroke-width:2;fill:yellow;stroke:black;"/><line x1="3466" y1="600" x2="3480" y2="550" style="stroke:black;"/><rect x="3488" y="600" width="10" height="400" rx="0" ry="0" style="stroke-width:2;fill:yellow;stroke:black;"/><line x1="3493" y1="600" x2="3480" y2="550" style="stroke:black;"/><text x="3480" y="550" style="fill:black;"><tspan x="3480" dy="0em">rpl2</tspan></text><rect x="3505" y="600" width="7" height="400" rx="0" ry="0" style="stroke-width:2;fill:green;stroke:black;"/><text x="3508" y="550" style="fill:black;"><tspan x="3508" dy="0em">rps19</tspan></text></svg>